<svg width="286" height="180" viewBox="0 0 286 180" fill="none" xmlns="http://www.w3.org/2000/svg">
<path d="M153.661 42.1261L175.829 42.1135C180.887 42.1107 184.278 47.3081 182.238 51.9364L156.288 110.823C152.49 119.428 146.991 133.723 142.967 141.479C134.493 158.084 119.726 170.609 101.958 176.265C76.8826 184.165 45.5588 178.839 22.4588 166.801C13.6691 161.793 7.1454 157.125 0 150.016C1.38062 147.486 5.10313 143.689 7.10952 141.346C11.1731 136.616 15.1543 131.815 19.0513 126.947C36.0741 142.64 54.0958 150.637 77.8029 150.524C111.191 150.364 117.548 119.815 129.568 95.305C137.969 78.1759 144.887 59.1855 153.58 42.2108C153.607 42.1826 153.634 42.1544 153.661 42.1261Z" fill="#0A593C"/>
<path d="M62.6902 0.227195C63.7773 -0.00516882 68.27 0.0167426 69.6385 0C53.3133 5.22634 41.4805 19.9039 39.1682 36.6682C37.9837 43.3136 38.6998 54.3308 44.1961 59.4928C57.285 71.7857 80.0111 73.096 96.5564 78.3968C102.31 80.2401 118.413 86.2966 121.392 90.3316C121.778 93.4329 108.214 120.75 105.652 125.003C105.135 122.197 104.977 121.483 103.635 118.974C97.1341 107.259 63.3281 102.82 50.3875 98.824C28.8619 92.4963 10.3535 82.6369 7.70756 57.8596C5.29399 35.259 15.5026 16.8054 36.2567 6.8729C44.9512 2.71187 53.1671 1.1607 62.6902 0.227195Z" fill="#0A593C"/>
<path d="M168.467 105.092C179.77 104.855 191.963 105.097 203.326 105.095C219.709 105.027 236.092 105.049 252.475 105.159C254.719 108.335 261.531 123.955 263.626 128.578L285.374 176.341L271.418 176.314C264.084 176.331 256.335 176.472 249.04 176.157C244.746 162.991 235.227 147.059 230.439 133.783L156.095 133.737C157.712 129.042 166.169 108.914 168.467 105.092Z" fill="#0A593C"/>
<path d="M173.741 0.694559C182.158 0.79158 196.769 0.154501 204.347 1.00516C204.457 1.14637 204.563 1.29028 204.667 1.43677C206.013 3.34246 210.331 12.9662 211.626 15.7263C217.859 28.8461 223.849 42.0799 229.594 55.4212C231.531 59.8089 247.997 93.8809 247.609 96.1297C244.109 96.6353 235.726 96.3984 231.828 96.3798C225.948 96.4741 220.066 96.4419 214.187 96.2831C211.033 91.0883 206.651 80.1502 204.054 74.2822L187.573 36.8107C186.654 34.7208 184.629 33.3281 182.347 33.2687C174.208 33.0568 165.045 33.2265 157.16 33.1946C162.355 23.607 166.064 12.1221 171.255 2.44642C171.873 1.2957 172.624 1.14866 173.741 0.694559Z" fill="#CEAE41"/>
<path d="M86.1882 3.16841C86.3211 3.14216 86.4541 3.11912 86.588 3.0993C102.709 0.610077 123.514 12.2058 136.148 21.5153C133.066 26.9509 122.837 40.848 118.813 46.072C112.869 42.4327 107.714 39.1958 101.587 35.6949C84.3876 28.369 63.0598 24.0136 47.5875 37.2534C50.0767 29.0662 51.3176 24.3766 57.0328 17.5915C64.3838 8.86452 74.8444 4.02334 86.1882 3.16841Z" fill="#CEAE41"/>
</svg>
