<svg width="1321" height="153" viewBox="0 0 1321 153" fill="none" xmlns="http://www.w3.org/2000/svg">
<path d="M381.281 150.588L440.088 2.31027H469.911L528.088 150.588H493.224L448.699 27.5133H460.67L415.515 150.588H381.281ZM414.675 123.705V96.8215H495.534V123.705H414.675Z" fill="#0A593C"/>
<path d="M280.426 150.588V2.31027H313.4V150.588H280.426ZM305.629 92.411V64.0576H379.768V92.411H305.629ZM305.629 30.6636V2.31027H383.128V30.6636H305.629Z" fill="#0A593C"/>
<path d="M117.929 150.588L176.736 2.31027H206.56L264.737 150.588H229.872L185.347 27.5133H197.319L152.163 150.588H117.929ZM151.323 123.705V96.8215H232.183V123.705H151.323Z" fill="#0A593C"/>
<path d="M55.4466 152.898C43.2652 152.898 32.7639 150.938 23.9429 147.018C15.2618 142.957 7.28087 136.866 0 128.745L21.4226 107.533C26.1831 112.993 31.4337 117.264 37.1744 120.344C43.0551 123.285 49.8459 124.755 57.5469 124.755C64.5477 124.755 69.9383 123.495 73.7188 120.974C77.6393 118.454 79.5995 114.954 79.5995 110.473C79.5995 106.413 78.3393 103.122 75.819 100.602C73.2987 98.0817 69.9383 95.9114 65.7378 94.0912C61.6773 92.271 57.1268 90.5208 52.0862 88.8406C47.1856 87.1604 42.285 85.2702 37.3845 83.1699C32.4839 80.9296 27.9333 78.1993 23.7328 74.9789C19.6723 71.6185 16.382 67.488 13.8617 62.5874C11.3414 57.5469 10.0812 51.2461 10.0812 43.6852C10.0812 34.5841 12.2515 26.7432 16.592 20.1624C21.0725 13.5816 27.2332 8.61102 35.0742 5.25062C42.9151 1.75021 51.9462 0 62.1674 0C72.5286 0 81.9798 1.82021 90.5208 5.46064C99.2018 9.10108 106.343 14.0717 111.943 20.3724L90.5208 41.5849C86.0403 36.9644 81.4897 33.534 76.8692 31.2937C72.3886 29.0535 67.278 27.9333 61.5373 27.9333C55.7966 27.9333 51.2461 29.0535 47.8857 31.2937C44.5253 33.394 42.8451 36.4743 42.8451 40.5348C42.8451 44.3153 44.1053 47.3956 46.6256 49.7759C49.1459 52.0162 52.4362 53.9764 56.4967 55.6566C60.6972 57.3368 65.2478 59.017 70.1484 60.6972C75.189 62.3774 80.1596 64.3377 85.0601 66.5779C89.9607 68.8182 94.4413 71.6885 98.5017 75.189C102.702 78.5494 106.063 82.8899 108.583 88.2105C111.103 93.3911 112.363 99.8319 112.363 107.533C112.363 121.674 107.323 132.806 97.2416 140.927C87.1604 148.908 73.2287 152.898 55.4466 152.898Z" fill="#0A593C"/>
<path d="M1199.98 151.164V136.393H1243.86C1255.59 136.393 1265.95 133.859 1274.93 128.79C1283.9 123.577 1290.93 116.481 1296 107.503C1301.06 98.3798 1303.6 87.9534 1303.6 76.2236C1303.6 64.4939 1301.06 54.1398 1296 45.1615C1290.93 36.1832 1283.9 29.1598 1274.93 24.0914C1265.95 18.8782 1255.59 16.2715 1243.86 16.2715H1200.42V1.71796H1244.3C1255.16 1.71796 1265.15 3.60051 1274.27 7.36561C1283.54 10.9859 1291.58 16.1991 1298.38 23.0053C1305.34 29.6666 1310.69 37.5589 1314.46 46.682C1318.22 55.6603 1320.11 65.58 1320.11 76.4408C1320.11 87.0121 1318.22 96.8593 1314.46 105.982C1310.69 115.106 1305.41 123.07 1298.6 129.876C1291.8 136.538 1283.76 141.751 1274.49 145.516C1265.37 149.281 1255.45 151.164 1244.73 151.164H1199.98ZM1190.21 151.164V1.71796H1206.07V151.164H1190.21Z" fill="#0A593C"/>
<path d="M1062.3 151.164V1.71796H1078.15V151.164H1062.3ZM1072.72 151.164V136.61H1160.7V151.164H1072.72ZM1072.72 81.6541V67.5349H1153.75V81.6541H1072.72ZM1072.72 16.2715V1.71796H1159.39V16.2715H1072.72Z" fill="#0A593C"/>
<path d="M880.717 151.164V1.71796H892.013L956.526 107.503H948.489L1013 1.71796H1024.3V151.164H1008.22V29.5218L1011.92 30.3907L958.047 118.798H946.751L892.881 30.3907L896.574 29.5218V151.164H880.717Z" fill="#0A593C"/>
<path d="M728.622 151.164V1.71796H744.479V151.164H728.622ZM826.588 151.164V1.71796H842.444V151.164H826.588ZM739.049 81.2196V66.6661H830.932V81.2196H739.049Z" fill="#0A593C"/>
<path d="M569.268 151.164L630.523 1.71796H642.47L703.074 151.164H685.914L633.13 19.0954H639.429L586.211 151.164H569.268ZM597.289 112.282V98.1626H675.487V112.282H597.289Z" fill="#0A593C"/>
</svg>
