<svg width="1610" height="180" viewBox="0 0 1610 180" fill="none" xmlns="http://www.w3.org/2000/svg">
<path d="M153.661 42.1261L186.57 42.1074L156.288 110.823C152.49 119.428 146.991 133.723 142.967 141.479C134.493 158.084 119.726 170.609 101.958 176.265C76.8825 184.165 45.5588 178.839 22.4588 166.801C13.6691 161.793 7.14539 157.125 0 150.016C1.38062 147.486 5.10313 143.689 7.10952 141.346C11.1731 136.616 15.1543 131.815 19.0513 126.947C36.074 142.64 54.0958 150.637 77.8029 150.524C111.191 150.364 117.548 119.815 129.568 95.305C137.969 78.1759 144.887 59.1855 153.58 42.2108C153.607 42.1826 153.634 42.1544 153.661 42.1261Z" fill="#0A593C"/>
<path d="M62.6902 0.227195C63.7773 -0.00516882 68.27 0.0167426 69.6385 0C53.3133 5.22634 41.4805 19.9039 39.1682 36.6682C37.9837 43.3136 38.6998 54.3308 44.1961 59.4928C57.285 71.7857 80.0111 73.096 96.5564 78.3968C102.31 80.2401 118.413 86.2966 121.392 90.3316C121.778 93.4329 108.214 120.75 105.652 125.003C105.135 122.197 104.977 121.483 103.635 118.974C97.1341 107.259 63.3281 102.82 50.3875 98.824C28.8619 92.4963 10.3535 82.6369 7.70756 57.8596C5.29399 35.259 15.5026 16.8054 36.2567 6.8729C44.9512 2.71187 53.1671 1.1607 62.6902 0.227195Z" fill="#0A593C"/>
<path d="M168.467 105.092C179.77 104.855 191.963 105.097 203.326 105.095C219.709 105.027 236.092 105.049 252.475 105.159C254.719 108.335 261.531 123.955 263.626 128.578L285.374 176.341L271.418 176.314C264.084 176.331 256.335 176.472 249.04 176.157C244.746 162.991 235.227 147.059 230.439 133.783L156.095 133.737C157.712 129.042 166.169 108.914 168.467 105.092Z" fill="#0A593C"/>
<path d="M173.741 0.694559C182.158 0.79158 196.769 0.154501 204.347 1.00516C204.457 1.14637 204.563 1.29028 204.667 1.43677C206.013 3.34246 210.331 12.9662 211.626 15.7263C217.859 28.8461 223.849 42.0799 229.594 55.4212C231.531 59.8089 247.997 93.8809 247.609 96.1297C244.109 96.6353 235.726 96.3984 231.828 96.3798C225.948 96.4741 220.066 96.4419 214.187 96.2831C211.033 91.0883 206.651 80.1502 204.054 74.2822L186.072 33.3979C177.098 32.9989 166.275 33.2314 157.16 33.1946C162.355 23.607 166.064 12.1221 171.255 2.44642C171.873 1.2957 172.624 1.14866 173.741 0.694559Z" fill="#CEAE41"/>
<path d="M86.1882 3.16841C86.3211 3.14216 86.4541 3.11912 86.588 3.0993C102.709 0.610077 123.514 12.2058 136.148 21.5153C133.066 26.9509 122.837 40.848 118.813 46.072C112.869 42.4327 107.714 39.1958 101.587 35.6949C84.3876 28.369 63.0598 24.0136 47.5875 37.2534C50.0767 29.0662 51.3176 24.3766 57.0328 17.5915C64.3838 8.86452 74.8444 4.02334 86.1882 3.16841Z" fill="#CEAE41"/>
<path d="M695.154 163.139L753.961 14.8612H783.784L841.961 163.139H807.097L762.572 40.0642H774.543L729.388 163.139H695.154ZM728.548 136.256V109.372H809.407V136.256H728.548Z" fill="#0A593C"/>
<path d="M594.299 163.139V14.8612H627.273V163.139H594.299ZM619.502 104.962V76.6085H693.641V104.962H619.502ZM619.502 43.2145V14.8612H697.001V43.2145H619.502Z" fill="#0A593C"/>
<path d="M431.802 163.139L490.609 14.8612H520.432L578.609 163.139H543.745L499.22 40.0642H511.191L466.036 163.139H431.802ZM465.196 136.256V109.372H546.055V136.256H465.196Z" fill="#0A593C"/>
<path d="M369.319 165.449C357.138 165.449 346.637 163.489 337.816 159.568C329.135 155.508 321.154 149.417 313.873 141.296L335.295 120.084C340.056 125.544 345.307 129.815 351.047 132.895C356.928 135.836 363.719 137.306 371.42 137.306C378.421 137.306 383.811 136.046 387.592 133.525C391.512 131.005 393.472 127.505 393.472 123.024C393.472 118.964 392.212 115.673 389.692 113.153C387.172 110.633 383.811 108.462 379.611 106.642C375.55 104.822 371 103.072 365.959 101.391C361.058 99.7113 356.158 97.821 351.257 95.7208C346.357 93.4805 341.806 90.7502 337.606 87.5298C333.545 84.1694 330.255 80.0389 327.734 75.1383C325.214 70.0977 323.954 63.797 323.954 56.2361C323.954 47.135 326.124 39.2941 330.465 32.7133C334.945 26.1325 341.106 21.1619 348.947 17.8015C356.788 14.3011 365.819 12.5509 376.04 12.5509C386.401 12.5509 395.853 14.3711 404.394 18.0115C413.075 21.652 420.216 26.6226 425.816 32.9233L404.394 54.1358C399.913 49.5153 395.363 46.0849 390.742 43.8446C386.261 41.6044 381.151 40.4842 375.41 40.4842C369.669 40.4842 365.119 41.6044 361.759 43.8446C358.398 45.9449 356.718 49.0252 356.718 53.0857C356.718 56.8662 357.978 59.9465 360.498 62.3268C363.019 64.5671 366.309 66.5273 370.37 68.2075C374.57 69.8877 379.121 71.5679 384.021 73.2481C389.062 74.9283 394.032 76.8886 398.933 79.1288C403.834 81.3691 408.314 84.2394 412.375 87.7399C416.575 91.1003 419.935 95.4408 422.456 100.761C424.976 105.942 426.236 112.383 426.236 120.084C426.236 134.225 421.196 145.357 411.114 153.478C401.033 161.459 387.102 165.449 369.319 165.449Z" fill="#0A593C"/>
<path d="M1489.86 163.715V148.944H1533.74C1545.47 148.944 1555.82 146.41 1564.8 141.341C1573.78 136.128 1580.8 129.032 1585.87 120.054C1590.94 110.931 1593.47 100.504 1593.47 88.7745C1593.47 77.0448 1590.94 66.6907 1585.87 57.7124C1580.8 48.7341 1573.78 41.7107 1564.8 36.6423C1555.82 31.429 1545.47 28.8224 1533.74 28.8224H1490.29V14.2689H1534.17C1545.03 14.2689 1555.02 16.1514 1564.15 19.9165C1573.41 23.5368 1581.45 28.75 1588.26 35.5562C1595.21 42.2175 1600.57 50.1098 1604.33 59.2329C1608.1 68.2112 1609.98 78.1309 1609.98 88.9917C1609.98 99.563 1608.1 109.41 1604.33 118.533C1600.57 127.656 1595.28 135.621 1588.47 142.427C1581.67 149.089 1573.63 154.302 1564.36 158.067C1555.24 161.832 1545.32 163.715 1534.6 163.715H1489.86ZM1480.08 163.715V14.2689H1495.94V163.715H1480.08Z" fill="#0A593C"/>
<path d="M1352.17 163.715V14.2689H1368.03V163.715H1352.17ZM1362.6 163.715V149.161H1450.57V163.715H1362.6ZM1362.6 94.205V80.0858H1443.62V94.205H1362.6ZM1362.6 28.8224V14.2689H1449.27V28.8224H1362.6Z" fill="#0A593C"/>
<path d="M1170.59 163.715V14.2689H1181.89L1246.4 120.054H1238.36L1302.88 14.2689H1314.17V163.715H1298.1V42.0727L1301.79 42.9416L1247.92 131.349H1236.62L1182.75 42.9416L1186.45 42.0727V163.715H1170.59Z" fill="#0A593C"/>
<path d="M1018.5 163.715V14.2689H1034.35V163.715H1018.5ZM1116.46 163.715V14.2689H1132.32V163.715H1116.46ZM1028.92 93.7705V79.2169H1120.8V93.7705H1028.92Z" fill="#0A593C"/>
<path d="M859.141 163.715L920.396 14.2689H932.343L992.947 163.715H975.787L923.003 31.6463H929.302L876.084 163.715H859.141ZM887.162 124.833V110.714H965.36V124.833H887.162Z" fill="#0A593C"/>
</svg>
